inDegrees=yes
name=ik_S49_A04_T01
DataType=double
version=3
OpenSimVersion=4.3-2021-08-27-4bc7ad9
endheader
time	pelvis_tilt	pelvis_list	pelvis_rotation	pelvis_tx	pelvis_ty	pelvis_tz	hip_flexion_r	hip_adduction_r	hip_rotation_r	knee_angle_r	knee_angle_r_beta	ankle_angle_r	subtalar_angle_r	mtp_angle_r	hip_flexion_l	hip_adduction_l	hip_rotation_l	knee_angle_l	knee_angle_l_beta	ankle_angle_l	subtalar_angle_l	mtp_angle_l	lumbar_extension	lumbar_bending	lumbar_rotation	arm_flex_r	arm_add_r	arm_rot_r	elbow_flex_r	pro_sup_r	wrist_flex_r	wrist_dev_r	arm_flex_l	arm_add_l	arm_rot_l	elbow_flex_l	pro_sup_l	wrist_flex_l	wrist_dev_l
6.47999999999995	-4.609342570819392	-2.829026307596367	30.34242330811145	0	0.9399999999999999	0	63.7000903837272	-5.599317178177416	-4.451077841601291	68.69931590731525	1.199029256450367	0	0	0	64.64307566397574	-4.733900816505376	-13.03286785015792	67.93832913821851	1.185747531765515	0	0	0	0	0	0	21.98112581539006	-21.98112581539005	3.456493091761181	63.67007705018004	86.54350710543616	0	0	21.98112581539006	-21.98112581539005	3.456493091761181	63.67007705018004	86.54350710514662	0	0
6.499999999999949	-5.454544161228998	-3.224204234826908	30.47013275108833	0	0.9399999999999999	0	64.63067753396102	-5.782740563982307	-4.428703884672119	69.17525855285092	1.207336022665616	0	0	0	64.24020366726265	-4.519116785304936	-13.3932240877687	66.82227071907515	1.16626863770686	0	0	0	0	0	0	21.98759026938802	-21.98759026938801	3.457340760811406	63.68240373546639	86.54265943643247	0	0	21.98759026938802	-21.98759026938801	3.457340760811406	63.68240373546639	86.54265943614311	0	0
6.519999999999949	-6.000921811149349	-3.493123536213343	30.50623786817622	0	0.9399999999999999	0	65.20653268538787	-5.882034566937855	-4.426444686923086	69.22172291341957	1.208146978742373	0	0	0	64.82278602362655	-4.445530482763824	-13.4005542905614	66.85154231256212	1.166779523390513	0	0	0	0	0	0	21.98941724847143	-21.98941724847143	3.457575704607556	63.68580945027604	86.54242449264919	0	0	21.98941724847143	-21.98941724847143	3.457575704607556	63.68580945027604	86.54242449235984	0	0
6.539999999999949	-6.505921549951661	-3.740157228555943	30.37257143159287	0	0.9399999999999999	0	65.8042640681239	-5.825433037637261	-4.34953324877079	69.43079194758086	1.211795921752452	0	0	0	63.99905144071666	-4.449072292708756	-13.81771354711156	65.5478926259523	1.14402654406658	0	0	0	0	0	0	21.9978009829396	-21.99780098293959	3.458674092210493	63.70177831154128	86.54132610510656	0	0	21.9978009829396	-21.99780098293959	3.458674092210493	63.70177831154128	86.54132610481739	0	0
6.559999999999948	-6.908933123669227	-3.916131798186493	30.24752729230296	0	0.9399999999999999	0	58.01227629222145	-5.411031937359385	-5.527865888451524	61.17819776370043	1.067760981412804	0	0	0	61.34273580066882	-4.492930976410488	-14.63201015559127	62.41807536272813	1.08940092783756	0	0	0	0	0	0	22.32432407491035	-22.32432407491035	3.49518119448111	64.21804180518842	86.50481900478989	0	0	22.32432407491035	-22.32432407491035	3.49518119448111	64.21804180518842	86.50481900450752	0	0
6.579999999999948	-7.241581844672885	-4.082761901357092	30.07624624514976	0	0.9399999999999999	0	55.30983796894733	-5.460088669686963	-5.996582468874613	57.81724154475759	1.009101229376872	0	0	0	61.70298956994993	-4.638700164908451	-14.69085390648149	62.28074057228174	1.087003983566734	0	0	0	0	0	0	22.54371085757108	-22.54371085757107	3.519515810739015	64.56167134420097	86.48048438983251	0	0	22.54371085757108	-22.54371085757107	3.519515810739015	64.56167134420097	86.48048438955482	0	0
6.599999999999947	-7.330861026232517	-4.143139181739673	29.88630967944399	0	0.9399999999999999	0	55.43881354107984	-5.313366572269958	-5.899622065789509	57.81900813156023	1.009132062133101	0	0	0	60.2228010232385	-4.786636079443428	-15.01891486481526	60.52147346992596	1.056298980208605	0	0	0	0	0	0	22.5525107352033	-22.5525107352033	3.520650424651211	64.57807993233484	86.47934977598239	0	0	22.5525107352033	-22.5525107352033	3.520650424651211	64.57807993233484	86.47934977570488	0	0
6.619999999999947	-7.324480412779558	-4.168883276923858	29.72129076802793	0	0.9399999999999999	0	52.37506974855211	-5.502075538264832	-6.197392838254101	54.4834323929367	0.9509152830444783	0	0	0	56.96550823234501	-5.147376690693623	-15.49359444219797	57.18882505445903	0.9981332925473355	0	0	0	0	0	0	22.72716396703681	-22.7271639670368	3.539925050840806	64.85001402224326	86.46007515082205	0	0	22.72716396703681	-22.7271639670368	3.539925050840806	64.85001402224326	86.46007515054805	0	0
6.639999999999946	-7.304040497670076	-4.207423305844788	29.60434206901129	0	0.9399999999999999	0	50.83398576162013	-5.626657220515889	-6.236082987633282	52.64041502480042	0.9187485617990598	0	0	0	55.33473054203849	-5.459811156019988	-15.64472949720805	55.68407622887215	0.9718704711253265	0	0	0	0	0	0	22.73214272821895	-22.73214272821894	3.540564044687459	64.85924092071747	86.4594361570103	0	0	22.73214272821895	-22.73214272821894	3.540564044687459	64.85924092071747	86.45943615673639	0	0
6.659999999999946	-7.144794768442042	-4.231461209956065	29.54302655006015	0	0.9399999999999999	0	50.70062939378667	-5.507578670678392	-6.278178027812837	52.46277568331485	0.9156481704090621	0	0	0	53.60741086235948	-5.828989942172668	-15.72729945384393	53.62400125374961	0.935915379971498	0	0	0	0	0	0	22.74067876427208	-22.74067876427208	3.54165775090785	64.87502872050663	86.45834245084964	0	0	22.74067876427208	-22.74067876427208	3.54165775090785	64.87502872050663	86.45834245057597	0	0
6.679999999999946	-7.007651381766353	-4.224284700935041	29.51766177504086	0	0.9399999999999999	0	49.05470557842226	-5.717222867463715	-6.335647571714642	50.73754563470618	0.885537225706499	0	0	0	51.91699552654737	-6.223592049867531	-15.70050646521247	51.89550557236696	0.9057474392248679	0	0	0	0	0	0	22.74582534710471	-22.7458253471047	3.542317763713925	64.88455718452143	86.4576824380796	0	0	22.74582534710471	-22.7458253471047	3.542317763713925	64.88455718452143	86.45768243780606	0	0
6.699999999999945	-6.641771355164137	-4.180325887934133	29.46736371766737	0	0.9399999999999999	0	47.27153677304712	-5.862920426757632	-6.379064762425394	49.02915032755269	0.8557201026710508	0	0	0	50.03052230318254	-6.761358742122039	-15.56479095537082	50.18596871750508	0.8759103924233396	0	0	0	0	0	0	22.75255375171277	-22.75255375171276	3.543180823089305	64.89701686514773	86.45681937875135	0	0	22.75255375171277	-22.75255375171276	3.543180823089305	64.89701686514773	86.45681937847804	0	0
6.719999999999945	-6.252288651949774	-4.143329081079754	29.41981628820152	0	0.9399999999999999	0	45.45474730461336	-5.984000401210222	-6.395214789188119	47.36297649055577	0.8266398833048673	0	0	0	48.16535279282913	-7.336473589885056	-15.32433985192606	48.5265507430989	0.8469480851031768	0	0	0	0	0	0	22.75761059880729	-22.75761059880729	3.543828596531833	64.90636639244542	86.45617160534425	0	0	22.75761059880729	-22.75761059880729	3.543828596531833	64.90636639244542	86.45617160507102	0	0
6.739999999999944	-5.548610812105711	-4.018242543849582	29.3143834392111	0	0.9399999999999999	0	43.39274341277306	-6.018076203272502	-6.272871500775935	45.91179287610542	0.8013119511817166	0	0	0	46.03167202806145	-8.024601250419742	-15.11218235205715	46.88197395910693	0.8182448054206574	0	0	0	0	0	0	22.76269229727626	-22.76269229727625	3.544478792496909	64.91574904647899	86.45552140941467	0	0	22.76269229727626	-22.76269229727625	3.544478792496909	64.91574904647899	86.4555214091416	0	0
6.759999999999944	-4.994178636838472	-3.892491866893428	29.22963917524768	0	0.9399999999999999	0	41.52329388747228	-6.15950611044464	-6.08412589630346	44.28247869887584	0.772875054239638	0	0	0	45.48483752747242	-8.234970916182816	-15.10472385516072	46.49137611762161	0.8114275870355556	0	0	0	0	0	0	22.77070252200088	-22.77070252200088	3.5455018590781	64.93050742328764	86.45449834288934	0	0	22.77070252200088	-22.77070252200088	3.5455018590781	64.93050742328764	86.45449834261643	0	0
6.779999999999943	-4.10290240706704	-3.702042797906285	29.08047862373826	0	0.9399999999999999	0	39.34502452628748	-6.142462080773814	-5.931214489754686	43.06168487333901	0.7515681824960031	0	0	0	43.1768232906384	-8.973900085111698	-14.79036779478589	44.84956260467475	0.7827725355308984	0	0	0	0	0	0	22.77647410686746	-22.77647410686745	3.546239896695309	64.94115583579823	86.45376030531253	0	0	22.77647410686746	-22.77647410686745	3.546239896695309	64.94115583579823	86.45376030503975	0	0
6.799999999999943	-3.769156083949874	-3.630234060187445	29.02616799075357	0	0.9399999999999999	0	36.5094969290226	-6.606407846463654	-5.337195502708989	40.32037957942767	0.7037233793148994	0	0	0	42.84980820715089	-9.115386690428146	-14.79538322598086	44.42924976947909	0.7754366926683417	0	0	0	0	0	0	22.78492664715073	-22.78492664715073	3.547321204990938	64.95675656338501	86.45267899707596	0	0	22.78492664715073	-22.78492664715073	3.547321204990938	64.95675656338501	86.45267899680339	0	0
6.819999999999943	-3.080826640466936	-3.485034085975899	28.91342855345608	0	0.9399999999999999	0	34.60558294130593	-6.60541416346704	-5.087032276623233	38.52246445661286	0.6723438407503827	0	0	0	39.40234789910135	-9.919278363897703	-14.03638399879964	41.56022046615334	0.7253626849891083	0	0	0	0	0	0	22.90156505166051	-22.9015650516605	3.560124950202363	65.13720804894147	86.43987525254747	0	0	22.90156505166051	-22.9015650516605	3.560124950202363	65.13720804894147	86.43987525227728	0	0
6.839999999999942	-2.415915579033306	-3.343775563442475	28.8187182796075	0	0.9399999999999999	0	33.96387996334031	-6.334503578782439	-5.191041733595682	37.55457291083627	0.6554509464743637	0	0	0	36.06741631777444	-10.50306901179046	-13.2424419853568	38.66951347552416	0.6749103302922121	0	0	0	0	0	0	22.91028113323115	-22.91028113323114	3.561235606738624	65.15321364106691	86.43876459607178	0	0	22.91028113323115	-22.91028113323114	3.561235606738624	65.15321364106691	86.43876459580191	0	0
6.859999999999942	-1.708848854561668	-3.169654709985969	28.74956633002175	0	0.9399999999999999	0	32.07154419748341	-6.287093448474215	-4.807758097558587	35.91158794266222	0.6267754492189522	0	0	0	34.00902125748145	-10.81721701192669	-12.80688075349404	36.95562277055556	0.6449972944711834	0	0	0	0	0	0	22.91534922208204	-22.91534922208203	3.561880378039529	65.16250332370217	86.43811982480604	0	0	22.91534922208204	-22.91534922208203	3.561880378039529	65.16250332370217	86.43811982453629	0	0
6.879999999999941	-1.3621385024963	-3.089498895837003	28.7179348173658	0	0.9399999999999999	0	31.7288575091248	-6.155923704816706	-4.854125591164263	35.34186564947264	0.6168319193807816	0	0	0	32.41631846839077	-11.00460712513719	-12.2683509805638	35.26410778950316	0.6154747887050096	0	0	0	0	0	0	22.92101090378628	-22.92101090378628	3.562601584876195	65.17289570283617	86.43739861800871	0	0	22.92101090378628	-22.92101090378628	3.562601584876195	65.17289570283617	86.43739861773909	0	0
6.899999999999941	-0.6568510270022214	-2.916864615782468	28.66517367868986	0	0.9399999999999999	0	28.67108884215616	-6.229246369528095	-4.142595522434337	32.4699209882287	0.5667070291070018	0	0	0	30.40526462306257	-11.24354723086276	-11.7864989162244	33.46162249663855	0.584015485625748	0	0	0	0	0	0	22.93058019370287	-22.93058019370286	3.563821299268003	65.19047147077389	86.43617890368348	0	0	22.93058019370287	-22.93058019370286	3.563821299268003	65.19047147077389	86.43617890341416	0	0
6.91999999999994	0.03699826016314686	-2.730844632951311	28.62449548873007	0	0.9399999999999999	0	26.74479874584627	-6.063434211014623	-3.865081480866682	30.97410700638741	0.5406001501265046	0	0	0	28.43551640588615	-11.48377927986935	-11.40694866431671	31.70248521749587	0.5533127481101335	0	0	0	0	0	0	22.9356787817106	-22.93567878171059	3.564469470219264	65.19980793691616	86.43553073276755	0	0	22.9356787817106	-22.93567878171059	3.564469470219264	65.19980793691616	86.43553073249832	0	0
6.93999999999994	0.9770878510940204	-2.468585128313225	28.59354597907012	0	0.9399999999999999	0	24.5967409192146	-5.800044249249268	-3.329837506949107	29.13997904862043	0.5085885783605912	0	0	0	27.49801604236182	-11.74423338676213	-11.36389560611564	31.09550901185153	0.5427190148403777	0	0	0	0	0	0	22.94572387981913	-22.94572387981913	3.565746567139303	65.21820204781156	86.43425363591714	0	0	22.94572387981913	-22.94572387981913	3.565746567139303	65.21820204781156	86.43425363564813	0	0
